<?xml version="1.0" encoding="UTF-8"?>
<svg id="Layer_2" data-name="Layer 2" xmlns="http://www.w3.org/2000/svg" viewBox="0 0 147.42 130.4">
  <defs>
    <style>
      .cls-1 {
        fill: #dc1e3e;
      }

      .cls-2 {
        fill: #f2644b;
      }
    </style>
  </defs>
  <g id="Layer_1-2" data-name="Layer 1">
    <g>
      <path class="cls-2" d="m144.98,71.44s-17.57-6.24-34.29,0c0,0,14.09-21.39,14.09-45.46,0,0-29.15,12-33.31,24.35,0,0,2.24-30.05-17.75-47.88-19.99,17.83-17.75,47.88-17.75,47.88-4.16-12.34-33.31-24.35-33.31-24.35,0,24.07,14.09,45.46,14.09,45.46-16.72-6.24-34.29,0-34.29,0,17.27,25.85,36.03,30.31,36.03,30.31l-9.16,8.73c26.87,23.88,44.4-.02,44.4-.02,0,0,17.53,23.9,44.4.02l-9.16-8.73s18.76-4.46,36.03-30.31Z"/>
      <path class="cls-1" d="m144.98,71.44s-17.57-6.24-34.29,0c0,0,14.09-21.39,14.09-45.46,0,0-29.15,12-33.31,24.35,0,0,2.24-30.05-17.75-47.88v108s17.53,23.9,44.4.02l-9.16-8.73s18.76-4.46,36.03-30.31Z"/>
      <path d="m135.3,86.21c-.6,0-1.19-.22-1.66-.65-.99-.92-1.05-2.47-.13-3.46,2.61-2.82,5.13-5.92,7.51-9.25-5.61-1.38-17.86-3.46-29.48.88-.99.37-2.11.06-2.77-.77-.66-.83-.71-1.99-.13-2.87.13-.2,12.23-18.85,13.57-40.32-9.3,4.28-25.7,13.24-28.43,21.33-.39,1.17-1.58,1.86-2.8,1.62-1.21-.24-2.05-1.35-1.96-2.58.02-.28,1.77-27.39-15.31-44.34-1.99,1.97-3.81,4.17-5.43,6.54-.76,1.12-2.28,1.4-3.4.64-1.12-.76-1.4-2.28-.64-3.4,2.28-3.34,4.92-6.36,7.84-8.97.93-.83,2.33-.83,3.26,0,14.31,12.76,17.74,31.17,18.48,41.7,9.22-9.82,27.53-17.58,30.03-18.61.75-.31,1.61-.22,2.29.23.68.45,1.08,1.22,1.08,2.03,0,17.49-7.07,33.39-11.35,41.39,15.23-3.34,29.26,1.53,29.92,1.76.71.25,1.27.82,1.5,1.54.24.72.13,1.5-.29,2.13-3.08,4.6-6.41,8.85-9.91,12.63-.48.52-1.14.78-1.79.78Z"/>
      <path d="m94.7,123.53c-.95,0-1.89-.05-2.84-.15-8.92-.95-15.17-6.14-18.15-9.21-2.98,3.07-9.24,8.26-18.15,9.21-9.14.97-18.51-2.76-27.87-11.08-.51-.45-.81-1.1-.82-1.79-.01-.68.26-1.34.76-1.81l6.26-5.97c-6.65-2.77-20.47-10.47-33.48-29.94-.42-.63-.53-1.41-.29-2.13.24-.72.79-1.28,1.5-1.54.1-.04,2.56-.9,6.49-1.68,1.33-.26,2.61.6,2.88,1.92.26,1.33-.6,2.61-1.92,2.88-1,.2-1.9.4-2.67.6,15.9,22.2,32.48,26.48,32.65,26.52.87.21,1.56.88,1.79,1.75.23.86-.03,1.79-.67,2.4l-7.19,6.85c7.56,6.14,14.95,8.88,22.02,8.15,10.38-1.07,16.69-9.44,16.75-9.52.46-.62,1.19-.99,1.97-.99h0c.78,0,1.51.37,1.97,1,.06.08,6.37,8.44,16.75,9.51,7.07.74,14.46-2.01,22.02-8.15l-7.19-6.85c-.65-.62-.91-1.54-.68-2.41.23-.87.92-1.53,1.8-1.74.07-.02,8.33-2.11,18.67-11.03,1.02-.88,2.57-.77,3.45.26.88,1.02.77,2.57-.25,3.45-6.91,5.96-12.97,9.11-16.73,10.68l6.27,5.97c.5.47.77,1.13.76,1.81-.01.68-.31,1.33-.82,1.79-8.39,7.46-16.8,11.23-25.04,11.23Z"/>
      <path d="m36.74,73.89c-.29,0-.58-.05-.86-.15-5.94-2.22-12.68-3.03-20.03-2.43-1.37.11-2.53-.89-2.64-2.24-.11-1.35.89-2.53,2.24-2.64,5.71-.47,11.1-.15,16.1.95-4.27-8-11.35-23.9-11.35-41.39,0-.82.41-1.58,1.08-2.03.68-.45,1.54-.54,2.29-.23,2.5,1.03,20.83,8.79,30.04,18.62.44-6.26,1.85-15.34,5.94-24.38.56-1.23,2.01-1.78,3.24-1.22,1.23.56,1.78,2.01,1.22,3.24-6.68,14.77-5.63,30.02-5.62,30.17.09,1.23-.75,2.33-1.95,2.58-1.2.24-2.41-.45-2.8-1.62-2.73-8.09-19.13-17.05-28.43-21.33,1.34,21.51,13.44,40.12,13.57,40.32.58.88.53,2.04-.13,2.87-.47.6-1.18.92-1.91.92Z"/>
      <path d="m73.57,130.4c-1.35,0-2.45-1.1-2.45-2.45V44.8c0-1.35,1.1-2.45,2.45-2.45s2.45,1.1,2.45,2.45v83.15c0,1.35-1.1,2.45-2.45,2.45Z"/>
      <path d="m73.56,86.21c-1.18,0-2.23-.86-2.41-2.07-.21-1.33.7-2.58,2.03-2.8h0c.67-.11,16.39-2.86,23.85-20.54.52-1.24,1.96-1.83,3.21-1.3,1.25.52,1.83,1.96,1.3,3.21-8.55,20.26-26.82,23.35-27.59,23.47-.13.02-.26.03-.38.03Z"/>
      <path d="m73.71,97.91c-1.34,0-2.43-1.08-2.45-2.42-.01-1.35,1.07-2.46,2.42-2.47.22,0,22.15-.34,35.29-11.14,1.05-.86,2.59-.71,3.44.34.86,1.04.71,2.59-.33,3.44-14.49,11.92-37.39,12.25-38.36,12.26h-.02Z"/>
      <path d="m92.85,111.02c-8.17,0-18.99-6.43-20.31-7.23-1.15-.7-1.52-2.21-.82-3.36.7-1.15,2.21-1.52,3.36-.82,3.51,2.13,13.81,7.44,19.25,6.39,1.33-.25,2.61.61,2.86,1.94.26,1.33-.61,2.61-1.94,2.87-.77.15-1.58.21-2.41.21Z"/>
      <path d="m73.2,86.21c-.13,0-.25,0-.38-.03-.77-.12-19.05-3.21-27.59-23.47-.53-1.25.06-2.68,1.3-3.21,1.25-.53,2.68.06,3.21,1.3,7.46,17.67,23.18,20.43,23.85,20.54,1.33.22,2.24,1.47,2.02,2.8-.19,1.2-1.23,2.06-2.41,2.06Z"/>
      <path d="m73.05,97.91h-.02c-.97,0-23.87-.34-38.36-12.26-1.04-.86-1.19-2.4-.33-3.44.86-1.04,2.4-1.19,3.44-.34,13.14,10.81,35.07,11.14,35.29,11.14,1.35.01,2.44,1.12,2.42,2.47-.01,1.34-1.1,2.42-2.45,2.42Z"/>
      <path d="m53.91,111.02c-.84,0-1.64-.07-2.41-.21-1.33-.26-2.2-1.54-1.94-2.87.25-1.33,1.55-2.19,2.86-1.94,5.44,1.05,15.74-4.26,19.25-6.39,1.15-.7,2.66-.34,3.36.82.7,1.15.34,2.66-.82,3.36-1.32.8-12.14,7.23-20.31,7.23Z"/>
    </g>
  </g>
</svg>