<?xml version="1.0" encoding="UTF-8"?>
<svg id="Layer_2" data-name="Layer 2" xmlns="http://www.w3.org/2000/svg" viewBox="0 0 69.55 65.42">
  <defs>
    <style>
      .cls-1 {
        stroke-width: 0px;
      }
    </style>
  </defs>
  <g id="Layer_1-2" data-name="Layer 1">
    <path class="cls-1" d="m40.49,49.44c.9,4.64,1.83,9.24,2.63,13.86.11.63-.28,1.6-.77,2-.34.27-1.37.02-1.9-.31-5.55-3.45-11.15-6.85-14.29-13.44-1.32,2.36-2.45,4.39-3.6,6.41-1.17,2.06-5.79,3.71-7.95,2.81-1.54-.64-1.74-1.94-1.09-3.2,1.15-2.21,2.48-4.34,3.81-6.45.72-1.14,1.59-2.19,2.6-3.56-2.12-.3-3.98-.52-5.83-.82-5.12-.84-9.21-3.79-13.35-6.61-1.2-.82-.95-2.02.57-2.56,4.28-1.54,8.61-2.95,12.95-4.41-1.07-1.18-2.44-2.52-3.61-4.01-5.59-7.11-5.17-14.99-2.68-23.04.54-1.74,2.05-1.49,3.43-1.05,5.75,1.86,10.52,5.14,14.26,9.88,1.19,1.51,2.29,3.09,3.51,4.74C33.46,8.59,43.76,5,53.16.34c1.73-.86,2.93-.07,3.04,1.94.4,7.55.1,15.08-2.78,22.17-1.07,2.63-3.08,4.87-4.68,7.31,1.32.19,2.85.37,4.37.63,6.25,1.07,11.33,4.21,15.58,8.83,1.28,1.39,1.11,2.47-.35,3.56-4.9,3.66-10.23,6.52-16.41,6.83-2.98.15-6.03-.8-9.03-1.34-.95-.17-1.86-.63-2.41-.83ZM53.96,3.44c-.27-.17-.54-.33-.81-.5-4.08,2.28-8.23,4.46-12.23,6.87-5.34,3.2-9.18,7.5-9.58,14.13-.04.6-.8,1.16-1.23,1.74-.56-.47-1.26-.84-1.64-1.42-1.23-1.93-2.22-4.01-3.53-5.89-3.61-5.2-8.35-8.95-14.71-10.87-1.98,7.46-2.44,14.57,3.13,20.68,2.01,2.2,4.51,3.94,6.72,5.96.45.41.95,1.3.78,1.7-.19.46-1.07.73-1.7.88-.45.1-.98-.12-1.47-.22-4.77-.9-8.86,1.19-13.28,2.78,4.27,3.28,8.06,4.8,12.82,5.21,1.71.15,3.43.22,5.14.4,1.67.17,2.11,1.09,1.16,2.48-.77,1.12-1.7,2.13-2.48,3.24-1.7,2.41-3.34,4.85-5.23,7.6,2.67-.03,4.23-.72,5.19-2.77,1.03-2.2,2.28-4.3,3.54-6.38.41-.67,1.14-1.14,1.72-1.7.57.64,1.35,1.19,1.67,1.93,2.4,5.62,6.8,9.2,12.19,12.28-.37-4.32-1.05-8.22-3.21-11.73-.68-1.1-1.42-2.16-1.95-3.33-.21-.46-.09-1.29.22-1.69.23-.3,1.04-.32,1.53-.21.54.11,1,.54,1.51.79,5.59,2.85,11.3,4.94,17.7,2.87,3.81-1.23,7.33-2.97,10.62-5.48-3.85-4.03-8.1-6.74-13.27-7.64-3.01-.52-6.12-.51-9.17-.83-.61-.06-1.18-.57-1.77-.87.32-.57.49-1.41.98-1.68,5.78-3.16,8.6-8.26,9.4-14.56.58-4.57.83-9.17,1.23-13.76Z"/>
  </g>
</svg>