<?xml version="1.0" encoding="UTF-8"?>
<svg id="Layer_2" data-name="Layer 2" xmlns="http://www.w3.org/2000/svg" viewBox="0 0 155.92 67.31">
  <defs>
    <style>
      .cls-1 {
        stroke-width: 0px;
      }
    </style>
  </defs>
  <g id="Layer_1-2" data-name="Layer 1">
    <g>
      <g>
        <path class="cls-1" d="m83.75,42.86c-2.59,0-4.56-.55-6.24-2.26l2.16-2.16c1.08,1.08,2.54,1.44,4.13,1.44,1.97,0,3.02-.74,3.02-2.11,0-.6-.17-1.1-.53-1.44-.34-.31-.72-.48-1.51-.6l-2.06-.29c-1.46-.22-2.54-.67-3.31-1.42-.82-.82-1.22-1.92-1.22-3.36,0-3.05,2.26-5.18,5.95-5.18,2.35,0,4.06.58,5.52,1.99l-2.11,2.09c-1.08-1.03-2.38-1.18-3.5-1.18-1.78,0-2.64.98-2.64,2.16,0,.43.14.89.5,1.22.34.31.89.58,1.58.67l2.02.29c1.56.22,2.54.65,3.26,1.32.91.86,1.32,2.11,1.32,3.62,0,3.31-2.76,5.18-6.34,5.18Z"/>
        <path class="cls-1" d="m96.9,42.71c-2.54,0-3.62-1.8-3.62-3.58v-6.19h-1.32v-2.38h1.32v-3.7h3.12v3.7h2.21v2.38h-2.21v6c0,.72.34,1.13,1.08,1.13h1.13v2.64h-1.7Z"/>
        <path class="cls-1" d="m107.85,42.71v-1.08c-.84.84-1.63,1.2-3.07,1.2s-2.45-.36-3.19-1.1c-.67-.7-1.03-1.7-1.03-2.81,0-1.99,1.37-3.62,4.27-3.62h2.95v-.62c0-1.37-.67-1.97-2.33-1.97-1.2,0-1.75.29-2.4,1.03l-1.99-1.94c1.22-1.34,2.42-1.73,4.51-1.73,3.5,0,5.33,1.49,5.33,4.42v8.23h-3.05Zm-.07-5.28h-2.47c-1.13,0-1.75.53-1.75,1.42s.58,1.44,1.8,1.44c.86,0,1.42-.07,1.97-.6.34-.31.46-.82.46-1.58v-.67Z"/>
        <path class="cls-1" d="m121.05,33.62c-.48-.48-.89-.74-1.66-.74-.96,0-2.02.72-2.02,2.3v7.54h-3.12v-12.5h3.05v1.2c.6-.72,1.8-1.34,3.14-1.34,1.22,0,2.09.31,2.95,1.18l-2.35,2.38Z"/>
        <path class="cls-1" d="m129.09,42.71c-2.54,0-3.62-1.8-3.62-3.58v-6.19h-1.32v-2.38h1.32v-3.7h3.12v3.7h2.21v2.38h-2.21v6c0,.72.34,1.13,1.08,1.13h1.13v2.64h-1.7Z"/>
        <path class="cls-1" d="m136.07,37.43c0,1.61.98,2.78,2.74,2.78,1.37,0,2.04-.38,2.83-1.18l1.9,1.85c-1.27,1.27-2.5,1.97-4.75,1.97-2.95,0-5.78-1.34-5.78-6.41,0-4.08,2.21-6.38,5.45-6.38,3.48,0,5.45,2.54,5.45,5.98v1.39h-7.82Zm4.46-3.48c-.34-.74-1.03-1.3-2.09-1.3s-1.75.55-2.09,1.3c-.19.46-.26.79-.29,1.34h4.75c-.02-.55-.1-.89-.29-1.34Z"/>
        <path class="cls-1" d="m153.57,33.62c-.48-.48-.89-.74-1.66-.74-.96,0-2.02.72-2.02,2.3v7.54h-3.12v-12.5h3.05v1.2c.6-.72,1.8-1.34,3.14-1.34,1.22,0,2.09.31,2.95,1.18l-2.35,2.38Z"/>
      </g>
      <g>
        <path class="cls-1" d="m85.57,53.05v14.11h-3.34v-14.11h-4.46v-2.98h12.27v2.98h-4.46Z"/>
        <path class="cls-1" d="m100.26,67.17v-7.63c0-1.66-1.06-2.21-2.04-2.21s-2.02.58-2.02,2.21v7.63h-3.12v-17.09h3.12v5.74c.84-.86,1.9-1.3,3-1.3,2.74,0,4.18,1.92,4.18,4.56v8.09h-3.12Z"/>
        <path class="cls-1" d="m109.77,61.89c0,1.61.98,2.78,2.74,2.78,1.37,0,2.04-.38,2.83-1.18l1.9,1.85c-1.27,1.27-2.5,1.97-4.75,1.97-2.95,0-5.78-1.34-5.78-6.41,0-4.08,2.21-6.38,5.45-6.38,3.48,0,5.45,2.54,5.45,5.98v1.39h-7.82Zm4.46-3.48c-.34-.74-1.03-1.3-2.09-1.3s-1.75.55-2.09,1.3c-.19.46-.26.79-.29,1.34h4.75c-.02-.55-.1-.89-.29-1.34Z"/>
        <path class="cls-1" d="m135.59,67.17v-7.56c0-1.7-1.08-2.28-2.06-2.28s-2.09.58-2.09,2.21v7.63h-3.12v-7.56c0-1.7-1.08-2.28-2.06-2.28s-2.09.58-2.09,2.28v7.56h-3.12v-12.5h3.05v1.15c.82-.84,1.97-1.3,3.12-1.3,1.39,0,2.52.5,3.31,1.58,1.06-1.1,2.18-1.58,3.74-1.58,1.25,0,2.38.41,3.07,1.1,1.01,1.01,1.37,2.18,1.37,3.55v7.99h-3.12Z"/>
        <path class="cls-1" d="m145.09,61.89c0,1.61.98,2.78,2.74,2.78,1.37,0,2.04-.38,2.83-1.18l1.9,1.85c-1.27,1.27-2.5,1.97-4.75,1.97-2.95,0-5.78-1.34-5.78-6.41,0-4.08,2.21-6.38,5.45-6.38,3.48,0,5.45,2.54,5.45,5.98v1.39h-7.82Zm4.46-3.48c-.34-.74-1.03-1.3-2.09-1.3s-1.75.55-2.09,1.3c-.19.46-.26.79-.29,1.34h4.75c-.02-.55-.1-.89-.29-1.34Z"/>
      </g>
      <path class="cls-1" d="m40.49,50.88c.9,4.64,1.83,9.24,2.63,13.86.11.63-.28,1.6-.77,2-.34.27-1.37.02-1.9-.31-5.55-3.45-11.15-6.85-14.29-13.44-1.32,2.36-2.45,4.39-3.6,6.41-1.17,2.06-5.79,3.71-7.95,2.81-1.54-.64-1.74-1.94-1.09-3.2,1.15-2.21,2.48-4.34,3.81-6.45.72-1.14,1.59-2.19,2.6-3.56-2.12-.3-3.98-.52-5.83-.82-5.12-.84-9.21-3.79-13.35-6.61-1.2-.82-.95-2.02.57-2.56,4.28-1.54,8.61-2.95,12.95-4.41-1.07-1.18-2.44-2.52-3.61-4.01-5.59-7.11-5.17-14.99-2.68-23.04.54-1.74,2.05-1.49,3.43-1.05,5.75,1.86,10.52,5.14,14.26,9.88,1.19,1.51,2.29,3.09,3.51,4.74,4.29-11.1,14.59-14.68,23.99-19.34,1.73-.86,2.93-.07,3.04,1.94.4,7.55.1,15.08-2.78,22.17-1.07,2.63-3.08,4.87-4.68,7.31,1.32.19,2.85.37,4.37.63,6.25,1.07,11.33,4.21,15.58,8.83,1.28,1.39,1.11,2.47-.35,3.56-4.9,3.66-10.23,6.52-16.41,6.83-2.98.15-6.03-.8-9.03-1.34-.95-.17-1.86-.63-2.41-.83ZM53.96,4.88c-.27-.17-.54-.33-.81-.5-4.08,2.28-8.23,4.46-12.23,6.87-5.34,3.2-9.18,7.5-9.58,14.13-.04.6-.8,1.16-1.23,1.74-.56-.47-1.26-.84-1.64-1.42-1.23-1.93-2.22-4.01-3.53-5.89-3.61-5.2-8.35-8.95-14.71-10.87-1.98,7.46-2.44,14.57,3.13,20.68,2.01,2.2,4.51,3.94,6.72,5.96.45.41.95,1.3.78,1.7-.19.46-1.07.73-1.7.88-.45.1-.98-.12-1.47-.22-4.77-.9-8.86,1.19-13.28,2.78,4.27,3.28,8.06,4.8,12.82,5.21,1.71.15,3.43.22,5.14.4,1.67.17,2.11,1.09,1.16,2.48-.77,1.12-1.7,2.13-2.48,3.24-1.7,2.41-3.34,4.85-5.23,7.6,2.67-.03,4.23-.72,5.19-2.77,1.03-2.2,2.28-4.3,3.54-6.38.41-.67,1.14-1.14,1.72-1.7.57.64,1.35,1.19,1.67,1.93,2.4,5.62,6.8,9.2,12.19,12.28-.37-4.32-1.05-8.22-3.21-11.73-.68-1.1-1.42-2.16-1.95-3.33-.21-.46-.09-1.29.22-1.69.23-.3,1.04-.32,1.53-.21.54.11,1,.54,1.51.79,5.59,2.85,11.3,4.94,17.7,2.87,3.81-1.23,7.33-2.97,10.62-5.48-3.85-4.03-8.1-6.74-13.27-7.64-3.01-.52-6.12-.51-9.17-.83-.61-.06-1.18-.57-1.77-.87.32-.57.49-1.41.98-1.68,5.78-3.16,8.6-8.26,9.4-14.56.58-4.57.83-9.17,1.23-13.76Z"/>
      <g>
        <path class="cls-1" d="m86.44,3.76v16.99h-4.02V3.76h-5.37V.17h14.76v3.58h-5.37Z"/>
        <path class="cls-1" d="m107.71,18.55c-1.47,1.53-3.41,2.37-5.75,2.37s-4.1-.81-5.55-2.25c-2.08-2.08-2.02-4.65-2.02-8.21s-.06-6.13,2.02-8.21c1.44-1.44,3.24-2.25,5.55-2.25,2.86,0,4.45.78,6.3,2.63l-2.72,2.72c-1.16-1.16-1.99-1.76-3.58-1.76-1.1,0-1.99.43-2.57,1.1-.78.87-.98,1.82-.98,5.78s.2,4.94.98,5.81c.58.66,1.47,1.07,2.57,1.07,1.21,0,2.08-.43,2.74-1.16.66-.72.9-1.79.9-2.8v-.72h-3.64v-3.35h7.66v2.95c0,2.98-.46,4.8-1.91,6.3Z"/>
      </g>
    </g>
  </g>
</svg>