<svg xmlns="http://www.w3.org/2000/svg" width="20" height="12" viewBox="0 0 20 12">
  <g id="Grupo_1061" data-name="Grupo 1061" transform="translate(20) rotate(90)">
    <path id="União_1" data-name="União 1" d="M.755,19.587l-.334-.328a1.384,1.384,0,0,1,0-1.989L7.852,10,.421,2.729A1.384,1.384,0,0,1,.421.74L.755.413a1.46,1.46,0,0,1,2.034,0L11.1,8.547a1.42,1.42,0,0,1,.141.121L11.58,9a1.4,1.4,0,0,1,0,2l-.336.33a1.327,1.327,0,0,1-.134.116l-8.32,8.14a1.459,1.459,0,0,1-2.034,0Z" transform="translate(0 0)" fill="currentColor"/>
  </g>
</svg>
